<svg width="1150" height="1150" viewBox="0 0 1150 1150" fill="none" xmlns="http://www.w3.org/2000/svg">
<g filter="url(#filter0_f)">
<circle cx="575" cy="575" r="419" fill="#C4C4C4"/>
<circle cx="575" cy="575" r="419" fill="url(#paint0_linear)"/>
</g>
<path d="M599.119 817.162H550.881C547.846 817.156 544.897 816.155 542.485 814.313C540.074 812.471 538.332 809.89 537.527 806.964L528.111 772.369C507.065 767.42 486.956 759.107 468.559 747.752L437.424 765.554C434.787 767.055 431.73 767.651 428.722 767.248C425.714 766.846 422.92 765.468 420.77 763.326L386.66 729.223C384.519 727.071 383.142 724.276 382.741 721.267C382.34 718.258 382.936 715.2 384.439 712.562L402.235 681.427C390.878 663.028 382.565 642.917 377.617 621.869L343.023 612.459C340.101 611.653 337.523 609.913 335.684 607.504C333.845 605.095 332.845 602.15 332.838 599.119V550.881C332.844 547.846 333.845 544.897 335.687 542.485C337.529 540.074 340.11 538.332 343.036 537.527L377.631 528.117C382.579 507.069 390.892 486.958 402.248 468.559L384.446 437.424C382.946 434.786 382.351 431.73 382.754 428.722C383.156 425.714 384.533 422.921 386.674 420.77L420.777 386.66C422.929 384.519 425.724 383.142 428.733 382.741C431.743 382.34 434.8 382.936 437.438 384.439L468.573 402.235C486.97 390.879 507.079 382.566 528.124 377.617L537.541 343.022C538.347 340.101 540.087 337.523 542.496 335.684C544.905 333.845 547.85 332.845 550.881 332.838H599.119C602.154 332.844 605.103 333.845 607.515 335.687C609.927 337.529 611.668 340.11 612.473 343.036L621.883 377.631C642.931 382.579 663.042 390.892 681.441 402.248L712.576 384.446C715.214 382.947 718.27 382.353 721.278 382.755C724.285 383.158 727.078 384.534 729.23 386.674L763.34 420.777C765.481 422.929 766.858 425.724 767.259 428.733C767.66 431.742 767.064 434.8 765.561 437.438L747.765 468.573C759.122 486.972 767.435 507.083 772.383 528.131L806.978 537.541C809.899 538.347 812.477 540.087 814.316 542.496C816.155 544.905 817.155 547.85 817.162 550.881V599.119C817.156 602.154 816.155 605.103 814.313 607.515C812.471 609.926 809.89 611.668 806.964 612.473L772.369 621.883C767.421 642.931 759.109 663.042 747.752 681.441L765.554 712.576C767.054 715.214 767.649 718.27 767.246 721.278C766.844 724.286 765.467 727.079 763.326 729.23L729.223 763.34C727.074 765.487 724.279 766.868 721.268 767.27C718.257 767.671 715.198 767.071 712.562 765.561L681.427 747.765C663.028 759.122 642.917 767.435 621.869 772.383L612.459 806.978C611.653 809.899 609.913 812.477 607.504 814.316C605.095 816.155 602.15 817.155 599.119 817.162ZM468.725 732.751C470.055 732.75 471.357 733.132 472.476 733.851C491.615 746.216 512.848 754.987 535.133 759.735C536.376 759.999 537.523 760.6 538.447 761.473C539.371 762.346 540.036 763.456 540.371 764.682L550.881 803.324H599.119L609.629 764.696C609.964 763.47 610.629 762.36 611.553 761.487C612.477 760.614 613.624 760.013 614.867 759.749C637.153 754.997 658.387 746.221 677.525 733.851C678.59 733.166 679.823 732.786 681.089 732.753C682.356 732.72 683.607 733.035 684.706 733.665L719.419 753.522L753.529 719.426L733.665 684.706C733.035 683.607 732.72 682.356 732.753 681.089C732.786 679.823 733.166 678.59 733.852 677.525C746.216 658.385 754.987 637.152 759.735 614.867C759.999 613.624 760.601 612.477 761.473 611.553C762.346 610.629 763.456 609.964 764.682 609.629L803.324 599.119V550.888L764.696 540.405C763.47 540.071 762.36 539.405 761.487 538.481C760.614 537.557 760.013 536.411 759.749 535.168C754.997 512.881 746.221 491.648 733.852 472.51C733.166 471.445 732.786 470.212 732.753 468.945C732.72 467.679 733.035 466.428 733.665 465.328L753.522 430.616L719.426 396.492L684.706 416.356C683.607 416.985 682.356 417.301 681.089 417.268C679.823 417.235 678.59 416.855 677.525 416.169C658.387 403.797 637.154 395.019 614.867 390.265C613.624 390.001 612.477 389.4 611.553 388.527C610.629 387.654 609.964 386.544 609.629 385.318L599.119 346.676H550.881L540.405 385.304C540.071 386.53 539.405 387.64 538.481 388.513C537.557 389.386 536.411 389.987 535.168 390.251C512.881 395.003 491.648 403.779 472.51 416.149C471.445 416.834 470.212 417.214 468.945 417.247C467.679 417.28 466.428 416.965 465.328 416.335L430.581 396.492L396.492 430.574L416.356 465.294C416.986 466.393 417.301 467.644 417.268 468.911C417.235 470.177 416.855 471.41 416.169 472.475C403.797 491.613 395.019 512.846 390.265 535.133C390.006 536.384 389.405 537.539 388.529 538.47C387.653 539.4 386.537 540.07 385.304 540.405L346.676 550.881V599.119L385.304 609.629C386.53 609.964 387.64 610.629 388.513 611.553C389.386 612.477 389.987 613.624 390.251 614.867C395.003 637.153 403.779 658.386 416.149 677.525C416.834 678.59 417.214 679.823 417.247 681.089C417.28 682.356 416.965 683.607 416.335 684.706L396.492 719.419L430.588 753.529L465.308 733.665C466.348 733.069 467.526 732.754 468.725 732.751V732.751Z" fill="white"/>
<path d="M699.617 517.988C698.335 517.99 697.078 517.636 695.986 516.965C694.894 516.294 694.009 515.334 693.431 514.19C690.41 508.215 686.921 502.489 682.997 497.065C682.465 496.329 682.083 495.495 681.873 494.611C681.663 493.727 681.629 492.81 681.773 491.912C681.917 491.015 682.237 490.155 682.713 489.381C683.19 488.608 683.814 487.935 684.551 487.403C685.287 486.871 686.121 486.488 687.005 486.278C687.889 486.068 688.806 486.034 689.704 486.179C690.601 486.323 691.461 486.642 692.235 487.119C693.008 487.596 693.68 488.22 694.213 488.956C698.556 494.974 702.42 501.325 705.768 507.949C706.3 509.003 706.554 510.176 706.505 511.356C706.456 512.536 706.106 513.683 705.488 514.69C704.87 515.696 704.005 516.528 702.975 517.105C701.945 517.682 700.784 517.986 699.603 517.988H699.617Z" fill="white"/>
<path d="M575 722.027C557.167 722.076 539.479 718.822 522.831 712.43C490.672 700.233 463.808 677.145 446.915 647.186C430.021 617.226 424.167 582.291 430.371 548.461C436.575 514.631 454.445 484.047 480.871 462.032C507.297 440.017 540.606 427.965 575 427.973C579.276 427.973 583.178 428.139 586.914 428.485C588.71 428.692 590.354 429.594 591.493 430.998C592.632 432.401 593.177 434.195 593.011 435.995C592.845 437.795 591.98 439.459 590.603 440.63C589.226 441.801 587.445 442.386 585.641 442.261C582.334 441.956 578.847 441.811 575 441.811C548.664 441.815 522.92 449.628 501.023 464.262C479.127 478.897 462.062 499.695 451.985 524.027C441.909 548.36 439.273 575.134 444.412 600.964C449.551 626.794 462.234 650.521 480.856 669.144C499.479 687.766 523.206 700.449 549.036 705.588C574.866 710.727 601.64 708.091 625.973 698.015C650.305 687.938 671.103 670.873 685.738 648.977C700.372 627.08 708.185 601.336 708.189 575C708.189 571.153 708.044 567.666 707.739 564.359C707.614 562.555 708.199 560.774 709.37 559.397C710.541 558.02 712.205 557.155 714.005 556.989C715.805 556.823 717.599 557.368 719.002 558.507C720.406 559.646 721.308 561.29 721.515 563.086C721.861 566.822 722.027 570.696 722.027 575C721.93 604.812 712.814 633.897 695.875 658.43C678.937 682.964 654.97 701.796 627.127 712.451C610.49 718.83 592.818 722.076 575 722.027Z" fill="white"/>
<path d="M653.876 466.165C652.466 466.164 651.09 465.732 649.932 464.927C644.521 461.199 638.836 457.884 632.925 455.012C631.274 454.206 630.01 452.776 629.413 451.038C628.815 449.3 628.933 447.396 629.739 445.744C630.546 444.093 631.975 442.829 633.713 442.232C635.451 441.634 637.355 441.752 639.007 442.558C645.551 445.739 651.845 449.412 657.833 453.545C659.053 454.384 659.971 455.591 660.454 456.99C660.936 458.388 660.958 459.905 660.515 461.317C660.072 462.729 659.189 463.962 657.994 464.834C656.799 465.707 655.355 466.173 653.876 466.165Z" fill="white"/>
<path d="M624.678 712.894C622.843 712.894 621.083 712.165 619.785 710.868C618.488 709.57 617.759 707.81 617.759 705.975V596.933H532.241V705.975C532.241 707.81 531.512 709.57 530.215 710.868C528.917 712.165 527.157 712.894 525.322 712.894C523.487 712.894 521.727 712.165 520.43 710.868C519.132 709.57 518.403 707.81 518.403 705.975V590.014C518.403 588.179 519.132 586.419 520.43 585.122C521.727 583.824 523.487 583.095 525.322 583.095H624.678C626.513 583.095 628.273 583.824 629.57 585.122C630.868 586.419 631.597 588.179 631.597 590.014V705.975C631.597 707.81 630.868 709.57 629.57 710.868C628.273 712.165 626.513 712.894 624.678 712.894Z" fill="white"/>
<path d="M624.692 596.926H525.308C524.094 596.926 522.901 596.606 521.849 595.999C520.797 595.392 519.924 594.518 519.317 593.467C518.709 592.415 518.39 591.222 518.39 590.007C518.39 588.793 518.709 587.599 519.317 586.548L569.008 500.58C569.666 499.594 570.557 498.785 571.602 498.226C572.648 497.667 573.815 497.375 575 497.375C576.185 497.375 577.353 497.667 578.398 498.226C579.443 498.785 580.334 499.594 580.992 500.58L630.684 586.548C631.291 587.599 631.61 588.793 631.61 590.007C631.611 591.222 631.291 592.415 630.684 593.467C630.076 594.518 629.203 595.392 628.151 595.999C627.099 596.606 625.906 596.926 624.692 596.926ZM537.299 583.088H612.715L575 517.871L537.299 583.088Z" fill="white"/>
<path d="M575 722.027C573.165 722.027 571.405 721.298 570.108 720.001C568.81 718.703 568.081 716.943 568.081 715.108V590.014C568.081 588.179 568.81 586.419 570.108 585.122C571.405 583.824 573.165 583.095 575 583.095C576.835 583.095 578.595 583.824 579.892 585.122C581.19 586.419 581.919 588.179 581.919 590.014V715.108C581.919 716.943 581.19 718.703 579.892 720.001C578.595 721.298 576.835 722.027 575 722.027Z" fill="white"/>
<defs>
<filter id="filter0_f" x="0" y="0" width="1150" height="1150" filterUnits="userSpaceOnUse" color-interpolation-filters="sRGB">
<feFlood flood-opacity="0" result="BackgroundImageFix"/>
<feBlend mode="normal" in="SourceGraphic" in2="BackgroundImageFix" result="shape"/>
<feGaussianBlur stdDeviation="78" result="effect1_foregroundBlur"/>
</filter>
<linearGradient id="paint0_linear" x1="575" y1="156" x2="575" y2="994" gradientUnits="userSpaceOnUse">
<stop stop-color="#00B2FF"/>
<stop offset="1" stop-color="white" stop-opacity="0"/>
</linearGradient>
</defs>
</svg>
